<svg xmlns="http://www.w3.org/2000/svg" xmlns:xlink="http://www.w3.org/1999/xlink" width="50"
    zoomAndPan="magnify" viewBox="0 0 37.5 30.000001" height="40"
    preserveAspectRatio="xMidYMid meet" version="1.0">
    <defs>
        <clipPath id="9f132d848b">
            <path
                d="M 18.074219 12.527344 L 19.546875 12.527344 L 19.546875 13.261719 L 18.074219 13.261719 Z M 18.074219 12.527344 "
                clip-rule="nonzero" />
        </clipPath>
        <clipPath id="f0a6092829">
            <path
                d="M 18.074219 12.527344 L 19 12.527344 L 19 13.261719 L 18.074219 13.261719 Z M 18.074219 12.527344 "
                clip-rule="nonzero" />
        </clipPath>
        <clipPath id="aa9d70d554">
            <path
                d="M 18.074219 12.527344 L 19.546875 12.527344 L 19.546875 13.261719 L 18.074219 13.261719 Z M 18.074219 12.527344 "
                clip-rule="nonzero" />
        </clipPath>
        <clipPath id="4702b776e7">
            <path
                d="M 18.074219 12.527344 L 19.546875 12.527344 L 19.546875 13 L 18.074219 13 Z M 18.074219 12.527344 "
                clip-rule="nonzero" />
        </clipPath>
        <clipPath id="0a5ab6a198">
            <path
                d="M 18.074219 12.527344 L 19 12.527344 L 19 13 L 18.074219 13 Z M 18.074219 12.527344 "
                clip-rule="nonzero" />
        </clipPath>
        <clipPath id="fe9b8c60d4">
            <path
                d="M 18.074219 12.527344 L 19 12.527344 L 19 13.261719 L 18.074219 13.261719 Z M 18.074219 12.527344 "
                clip-rule="nonzero" />
        </clipPath>
    </defs>
    <g clip-path="url(#9f132d848b)">
        <path fill="#231f20"
            d="M 19.3125 12.96875 C 19.3125 12.976562 19.3125 12.984375 19.3125 12.996094 C 19.3125 13.035156 19.3125 13.074219 19.3125 13.113281 C 19.3125 13.125 19.3125 13.136719 19.3125 13.152344 C 19.3125 13.152344 19.3125 13.15625 19.3125 13.160156 C 19.3125 13.160156 19.3125 13.160156 19.3125 13.164062 C 19.308594 13.164062 19.308594 13.164062 19.308594 13.164062 C 19.308594 13.164062 19.308594 13.164062 19.304688 13.164062 C 19.304688 13.164062 19.300781 13.164062 19.300781 13.164062 C 19.296875 13.167969 19.289062 13.167969 19.285156 13.167969 C 19.261719 13.171875 19.242188 13.175781 19.222656 13.179688 C 19.160156 13.1875 19.097656 13.199219 19.035156 13.207031 C 18.976562 13.21875 18.921875 13.226562 18.863281 13.234375 C 18.851562 13.238281 18.839844 13.238281 18.824219 13.242188 C 18.820312 13.242188 18.820312 13.242188 18.816406 13.242188 C 18.816406 13.242188 18.8125 13.242188 18.8125 13.242188 C 18.8125 13.242188 18.808594 13.242188 18.804688 13.242188 C 18.808594 13.242188 18.804688 13.242188 18.804688 13.242188 C 18.804688 13.242188 18.800781 13.242188 18.800781 13.242188 C 18.796875 13.242188 18.796875 13.242188 18.796875 13.242188 C 18.796875 13.242188 18.792969 13.242188 18.792969 13.242188 C 18.753906 13.234375 18.710938 13.226562 18.671875 13.222656 C 18.605469 13.210938 18.542969 13.199219 18.476562 13.191406 C 18.429688 13.183594 18.378906 13.175781 18.332031 13.167969 C 18.328125 13.167969 18.324219 13.164062 18.316406 13.164062 C 18.3125 13.164062 18.3125 13.164062 18.3125 13.164062 C 18.3125 13.164062 18.308594 13.164062 18.308594 13.164062 C 18.308594 13.15625 18.308594 13.152344 18.308594 13.148438 C 18.308594 13.117188 18.308594 13.082031 18.308594 13.050781 C 18.308594 13.023438 18.308594 12.996094 18.308594 12.96875 C 18.300781 12.964844 18.292969 12.964844 18.289062 12.964844 C 18.285156 12.964844 18.28125 12.960938 18.28125 12.960938 C 18.28125 12.964844 18.28125 12.96875 18.28125 12.96875 C 18.28125 13.011719 18.28125 13.054688 18.28125 13.09375 C 18.28125 13.117188 18.28125 13.140625 18.28125 13.160156 C 18.28125 13.171875 18.285156 13.179688 18.296875 13.183594 C 18.300781 13.183594 18.304688 13.183594 18.308594 13.183594 C 18.308594 13.183594 18.3125 13.183594 18.3125 13.183594 C 18.328125 13.1875 18.34375 13.1875 18.355469 13.191406 C 18.414062 13.199219 18.472656 13.210938 18.53125 13.21875 C 18.59375 13.230469 18.652344 13.238281 18.714844 13.25 C 18.734375 13.253906 18.753906 13.253906 18.773438 13.257812 C 18.777344 13.257812 18.78125 13.261719 18.789062 13.261719 C 18.785156 13.261719 18.785156 13.257812 18.789062 13.261719 C 18.789062 13.261719 18.792969 13.261719 18.792969 13.261719 C 18.800781 13.261719 18.804688 13.261719 18.8125 13.261719 C 18.820312 13.261719 18.828125 13.261719 18.835938 13.261719 C 18.839844 13.257812 18.847656 13.257812 18.851562 13.257812 C 18.871094 13.253906 18.894531 13.25 18.914062 13.246094 C 18.976562 13.238281 19.039062 13.226562 19.101562 13.21875 C 19.15625 13.207031 19.214844 13.199219 19.269531 13.191406 C 19.285156 13.1875 19.296875 13.1875 19.3125 13.183594 C 19.304688 13.183594 19.316406 13.183594 19.316406 13.183594 C 19.316406 13.183594 19.320312 13.183594 19.320312 13.183594 C 19.328125 13.179688 19.335938 13.175781 19.335938 13.171875 C 19.339844 13.167969 19.339844 13.164062 19.339844 13.160156 C 19.339844 13.136719 19.339844 13.113281 19.339844 13.089844 C 19.339844 13.046875 19.339844 13.003906 19.339844 12.960938 C 19.332031 12.964844 19.320312 12.964844 19.3125 12.96875 Z M 18.308594 13.164062 Z M 18.308594 13.164062 Z M 18.308594 13.164062 Z M 18.308594 13.164062 Z M 18.308594 13.183594 C 18.304688 13.183594 18.308594 13.183594 18.308594 13.183594 Z M 18.308594 13.183594 Z M 18.308594 13.183594 "
            fill-opacity="1" fill-rule="nonzero" />
    </g>
    <g clip-path="url(#f0a6092829)">
        <path fill="#231f20"
            d="M 18.820312 12.867188 C 18.828125 12.859375 18.824219 12.851562 18.816406 12.84375 C 18.816406 12.839844 18.808594 12.839844 18.804688 12.835938 C 18.804688 12.835938 18.800781 12.835938 18.800781 12.835938 C 18.792969 12.835938 18.78125 12.835938 18.773438 12.832031 C 18.738281 12.828125 18.707031 12.820312 18.671875 12.816406 C 18.625 12.808594 18.582031 12.804688 18.539062 12.796875 C 18.496094 12.789062 18.453125 12.78125 18.410156 12.777344 C 18.386719 12.773438 18.359375 12.769531 18.332031 12.765625 C 18.328125 12.761719 18.328125 12.761719 18.324219 12.761719 C 18.324219 12.761719 18.320312 12.761719 18.320312 12.761719 C 18.320312 12.761719 18.320312 12.761719 18.316406 12.761719 C 18.316406 12.761719 18.3125 12.761719 18.308594 12.761719 C 18.300781 12.761719 18.296875 12.761719 18.289062 12.765625 C 18.289062 12.765625 18.285156 12.769531 18.285156 12.769531 C 18.285156 12.769531 18.28125 12.769531 18.285156 12.769531 C 18.28125 12.773438 18.277344 12.773438 18.277344 12.777344 C 18.25 12.792969 18.222656 12.8125 18.199219 12.828125 C 18.167969 12.847656 18.140625 12.871094 18.113281 12.890625 C 18.105469 12.894531 18.097656 12.898438 18.089844 12.902344 C 18.078125 12.914062 18.085938 12.933594 18.105469 12.933594 C 18.128906 12.9375 18.148438 12.941406 18.167969 12.945312 C 18.207031 12.953125 18.246094 12.957031 18.289062 12.964844 C 18.332031 12.972656 18.378906 12.976562 18.421875 12.984375 C 18.460938 12.992188 18.5 12.996094 18.535156 13.003906 C 18.554688 13.003906 18.570312 13.007812 18.585938 13.011719 C 18.589844 13.011719 18.585938 13.011719 18.585938 13.011719 C 18.589844 13.011719 18.597656 13.011719 18.605469 13.011719 C 18.609375 13.011719 18.617188 13.007812 18.621094 13.007812 C 18.621094 13.003906 18.625 13.003906 18.625 13.003906 C 18.628906 13 18.625 13.003906 18.625 13.003906 C 18.625 13.003906 18.628906 13 18.628906 13 C 18.636719 12.992188 18.648438 12.988281 18.65625 12.980469 C 18.6875 12.960938 18.71875 12.9375 18.746094 12.917969 C 18.769531 12.902344 18.792969 12.886719 18.816406 12.871094 C 18.816406 12.871094 18.816406 12.871094 18.820312 12.867188 C 18.824219 12.863281 18.824219 12.859375 18.820312 12.855469 C 18.8125 12.851562 18.804688 12.851562 18.796875 12.855469 C 18.78125 12.867188 18.765625 12.878906 18.746094 12.890625 C 18.71875 12.910156 18.6875 12.933594 18.65625 12.953125 C 18.636719 12.964844 18.621094 12.976562 18.601562 12.988281 C 18.601562 12.992188 18.601562 12.992188 18.601562 12.992188 C 18.597656 12.996094 18.601562 12.992188 18.601562 12.992188 C 18.597656 12.992188 18.601562 12.992188 18.601562 12.992188 C 18.597656 12.992188 18.597656 12.992188 18.601562 12.992188 C 18.597656 12.992188 18.597656 12.992188 18.597656 12.992188 C 18.601562 12.992188 18.597656 12.992188 18.597656 12.992188 C 18.601562 12.992188 18.597656 12.992188 18.59375 12.992188 C 18.59375 12.992188 18.589844 12.992188 18.589844 12.992188 C 18.578125 12.988281 18.570312 12.988281 18.558594 12.988281 C 18.527344 12.980469 18.492188 12.976562 18.457031 12.96875 C 18.410156 12.964844 18.367188 12.957031 18.320312 12.949219 C 18.28125 12.941406 18.238281 12.9375 18.195312 12.929688 C 18.171875 12.925781 18.144531 12.921875 18.121094 12.917969 C 18.117188 12.917969 18.117188 12.917969 18.113281 12.917969 C 18.113281 12.917969 18.117188 12.917969 18.113281 12.917969 C 18.117188 12.917969 18.113281 12.917969 18.113281 12.917969 C 18.113281 12.914062 18.117188 12.917969 18.113281 12.917969 C 18.113281 12.914062 18.117188 12.917969 18.113281 12.917969 C 18.113281 12.917969 18.113281 12.914062 18.113281 12.917969 C 18.113281 12.917969 18.113281 12.914062 18.113281 12.914062 C 18.113281 12.917969 18.113281 12.914062 18.113281 12.914062 C 18.113281 12.917969 18.109375 12.917969 18.113281 12.917969 C 18.113281 12.917969 18.113281 12.914062 18.117188 12.914062 C 18.117188 12.914062 18.121094 12.910156 18.125 12.90625 C 18.152344 12.890625 18.179688 12.871094 18.207031 12.851562 C 18.234375 12.832031 18.261719 12.8125 18.292969 12.792969 C 18.296875 12.789062 18.300781 12.785156 18.304688 12.78125 C 18.308594 12.78125 18.308594 12.78125 18.308594 12.78125 C 18.3125 12.777344 18.308594 12.78125 18.308594 12.78125 C 18.3125 12.777344 18.304688 12.78125 18.308594 12.78125 C 18.3125 12.78125 18.3125 12.78125 18.308594 12.78125 C 18.308594 12.78125 18.3125 12.78125 18.3125 12.78125 C 18.308594 12.78125 18.3125 12.78125 18.3125 12.78125 C 18.308594 12.777344 18.3125 12.78125 18.316406 12.78125 C 18.316406 12.78125 18.320312 12.78125 18.320312 12.78125 C 18.347656 12.785156 18.371094 12.789062 18.394531 12.792969 C 18.4375 12.800781 18.476562 12.804688 18.519531 12.8125 C 18.5625 12.820312 18.609375 12.828125 18.652344 12.832031 C 18.6875 12.839844 18.726562 12.84375 18.761719 12.851562 C 18.769531 12.851562 18.78125 12.855469 18.789062 12.855469 C 18.792969 12.855469 18.792969 12.855469 18.796875 12.855469 C 18.796875 12.855469 18.792969 12.855469 18.796875 12.855469 C 18.792969 12.855469 18.792969 12.855469 18.796875 12.855469 C 18.796875 12.859375 18.792969 12.855469 18.796875 12.855469 C 18.796875 12.859375 18.792969 12.855469 18.796875 12.855469 C 18.796875 12.855469 18.796875 12.859375 18.796875 12.855469 C 18.796875 12.855469 18.796875 12.855469 18.796875 12.859375 C 18.796875 12.855469 18.796875 12.855469 18.796875 12.859375 C 18.796875 12.859375 18.796875 12.855469 18.796875 12.855469 C 18.792969 12.863281 18.792969 12.867188 18.800781 12.871094 C 18.808594 12.871094 18.816406 12.871094 18.820312 12.867188 Z M 18.820312 12.867188 "
            fill-opacity="1" fill-rule="nonzero" />
    </g>
    <g clip-path="url(#aa9d70d554)">
        <path fill="#231f20"
            d="M 18.824219 12.855469 C 18.828125 12.859375 18.824219 12.859375 18.824219 12.855469 C 18.824219 12.855469 18.824219 12.859375 18.824219 12.855469 C 18.824219 12.859375 18.824219 12.855469 18.824219 12.855469 C 18.824219 12.859375 18.824219 12.855469 18.824219 12.855469 C 18.828125 12.855469 18.824219 12.855469 18.828125 12.855469 C 18.824219 12.855469 18.824219 12.855469 18.824219 12.855469 C 18.828125 12.855469 18.828125 12.855469 18.832031 12.855469 C 18.839844 12.855469 18.851562 12.851562 18.859375 12.851562 C 18.894531 12.84375 18.929688 12.839844 18.964844 12.835938 C 19.011719 12.828125 19.054688 12.820312 19.101562 12.8125 C 19.140625 12.804688 19.183594 12.800781 19.226562 12.792969 C 19.25 12.789062 19.273438 12.785156 19.300781 12.78125 C 19.300781 12.78125 19.304688 12.78125 19.304688 12.78125 C 19.308594 12.78125 19.308594 12.78125 19.308594 12.78125 C 19.304688 12.78125 19.308594 12.78125 19.308594 12.78125 C 19.3125 12.78125 19.304688 12.78125 19.308594 12.78125 C 19.3125 12.78125 19.3125 12.78125 19.308594 12.78125 C 19.308594 12.78125 19.3125 12.78125 19.3125 12.78125 C 19.308594 12.78125 19.3125 12.78125 19.3125 12.78125 C 19.308594 12.777344 19.3125 12.78125 19.3125 12.78125 C 19.3125 12.78125 19.308594 12.777344 19.3125 12.78125 C 19.3125 12.78125 19.3125 12.78125 19.316406 12.78125 C 19.320312 12.785156 19.324219 12.789062 19.328125 12.792969 C 19.355469 12.8125 19.382812 12.832031 19.414062 12.851562 C 19.441406 12.871094 19.46875 12.886719 19.496094 12.90625 C 19.5 12.910156 19.503906 12.914062 19.507812 12.917969 C 19.503906 12.914062 19.507812 12.914062 19.507812 12.914062 C 19.507812 12.917969 19.507812 12.914062 19.507812 12.914062 C 19.507812 12.917969 19.507812 12.917969 19.507812 12.914062 C 19.507812 12.917969 19.507812 12.917969 19.507812 12.917969 C 19.507812 12.914062 19.507812 12.917969 19.507812 12.917969 C 19.507812 12.914062 19.507812 12.917969 19.507812 12.917969 C 19.503906 12.917969 19.507812 12.914062 19.507812 12.917969 C 19.503906 12.917969 19.503906 12.917969 19.5 12.917969 C 19.476562 12.921875 19.449219 12.925781 19.425781 12.929688 C 19.382812 12.9375 19.339844 12.941406 19.300781 12.949219 C 19.253906 12.957031 19.210938 12.964844 19.164062 12.96875 C 19.128906 12.976562 19.097656 12.980469 19.0625 12.988281 C 19.050781 12.988281 19.042969 12.988281 19.03125 12.992188 C 19.03125 12.992188 19.027344 12.992188 19.027344 12.992188 C 19.023438 12.992188 19.023438 12.992188 19.023438 12.992188 C 19.027344 12.992188 19.023438 12.992188 19.023438 12.992188 C 19.019531 12.992188 19.027344 12.992188 19.023438 12.992188 C 19.019531 12.992188 19.019531 12.992188 19.023438 12.992188 C 19.023438 12.992188 19.019531 12.992188 19.019531 12.992188 C 19.023438 12.992188 19.019531 12.992188 19.019531 12.992188 C 19.023438 12.992188 19.019531 12.992188 19.019531 12.992188 C 19.019531 12.992188 19.023438 12.992188 19.019531 12.992188 C 19.019531 12.992188 19.019531 12.992188 19.019531 12.988281 C 19 12.976562 18.984375 12.964844 18.964844 12.953125 C 18.9375 12.933594 18.90625 12.910156 18.875 12.890625 C 18.855469 12.878906 18.839844 12.867188 18.824219 12.855469 C 18.816406 12.851562 18.808594 12.851562 18.800781 12.855469 C 18.796875 12.859375 18.796875 12.863281 18.800781 12.867188 C 18.820312 12.878906 18.835938 12.890625 18.851562 12.902344 C 18.882812 12.925781 18.914062 12.945312 18.945312 12.96875 C 18.960938 12.980469 18.980469 12.992188 18.996094 13.003906 C 18.992188 13 19 13.003906 19 13.003906 C 19 13.007812 19.003906 13.007812 19.003906 13.007812 C 19.007812 13.011719 19.015625 13.011719 19.023438 13.011719 C 19.023438 13.011719 19.027344 13.011719 19.03125 13.011719 C 19.035156 13.011719 19.035156 13.011719 19.035156 13.011719 C 19.035156 13.011719 19.03125 13.011719 19.035156 13.011719 C 19.035156 13.011719 19.039062 13.011719 19.039062 13.007812 C 19.046875 13.007812 19.058594 13.007812 19.066406 13.003906 C 19.101562 13 19.132812 12.996094 19.167969 12.988281 C 19.210938 12.984375 19.257812 12.976562 19.300781 12.96875 C 19.34375 12.960938 19.386719 12.957031 19.429688 12.949219 C 19.453125 12.945312 19.480469 12.941406 19.507812 12.9375 C 19.507812 12.9375 19.511719 12.9375 19.515625 12.933594 C 19.523438 12.933594 19.527344 12.929688 19.53125 12.925781 C 19.539062 12.921875 19.539062 12.910156 19.53125 12.902344 C 19.527344 12.902344 19.523438 12.898438 19.523438 12.898438 C 19.496094 12.878906 19.472656 12.863281 19.445312 12.84375 C 19.417969 12.824219 19.386719 12.804688 19.359375 12.785156 C 19.351562 12.78125 19.34375 12.773438 19.335938 12.769531 C 19.335938 12.769531 19.339844 12.769531 19.335938 12.769531 C 19.335938 12.769531 19.335938 12.769531 19.332031 12.765625 C 19.332031 12.765625 19.328125 12.765625 19.328125 12.765625 C 19.320312 12.761719 19.316406 12.761719 19.308594 12.761719 C 19.308594 12.761719 19.304688 12.761719 19.300781 12.761719 C 19.300781 12.761719 19.296875 12.761719 19.296875 12.761719 C 19.296875 12.761719 19.300781 12.761719 19.296875 12.761719 C 19.277344 12.765625 19.253906 12.769531 19.234375 12.773438 C 19.195312 12.777344 19.15625 12.785156 19.117188 12.789062 C 19.070312 12.796875 19.023438 12.804688 18.980469 12.8125 C 18.941406 12.816406 18.902344 12.824219 18.867188 12.828125 C 18.847656 12.832031 18.832031 12.835938 18.816406 12.835938 C 18.808594 12.839844 18.804688 12.84375 18.800781 12.84375 C 18.792969 12.851562 18.792969 12.859375 18.800781 12.867188 C 18.804688 12.871094 18.8125 12.871094 18.820312 12.871094 C 18.828125 12.867188 18.828125 12.863281 18.824219 12.855469 Z M 18.824219 12.855469 "
            fill-opacity="1" fill-rule="nonzero" />
    </g>
    <g clip-path="url(#4702b776e7)">
        <path fill="#231f20"
            d="M 18.800781 12.671875 C 18.792969 12.683594 18.792969 12.691406 18.804688 12.695312 C 18.804688 12.699219 18.8125 12.703125 18.816406 12.703125 C 18.816406 12.703125 18.820312 12.703125 18.820312 12.703125 C 18.828125 12.703125 18.839844 12.707031 18.847656 12.707031 C 18.882812 12.714844 18.914062 12.71875 18.949219 12.722656 C 18.992188 12.730469 19.039062 12.738281 19.082031 12.746094 C 19.125 12.75 19.167969 12.757812 19.210938 12.765625 C 19.234375 12.769531 19.261719 12.773438 19.289062 12.777344 C 19.292969 12.777344 19.292969 12.777344 19.296875 12.777344 C 19.296875 12.777344 19.296875 12.777344 19.300781 12.777344 C 19.300781 12.777344 19.300781 12.777344 19.304688 12.78125 C 19.304688 12.78125 19.308594 12.78125 19.3125 12.78125 C 19.320312 12.78125 19.324219 12.777344 19.332031 12.773438 C 19.332031 12.773438 19.335938 12.773438 19.335938 12.769531 C 19.335938 12.769531 19.339844 12.769531 19.335938 12.769531 C 19.339844 12.769531 19.34375 12.765625 19.34375 12.765625 C 19.371094 12.746094 19.398438 12.730469 19.421875 12.710938 C 19.453125 12.691406 19.480469 12.671875 19.507812 12.652344 C 19.515625 12.644531 19.523438 12.640625 19.53125 12.636719 C 19.542969 12.628906 19.535156 12.609375 19.515625 12.605469 C 19.492188 12.601562 19.472656 12.597656 19.453125 12.59375 C 19.414062 12.589844 19.375 12.582031 19.332031 12.578125 C 19.289062 12.570312 19.242188 12.5625 19.199219 12.554688 C 19.160156 12.550781 19.121094 12.542969 19.085938 12.539062 C 19.066406 12.535156 19.050781 12.53125 19.035156 12.53125 C 19.03125 12.53125 19.035156 12.53125 19.035156 12.53125 C 19.03125 12.527344 19.023438 12.527344 19.015625 12.527344 C 19.011719 12.53125 19.003906 12.53125 19 12.535156 C 19 12.535156 18.996094 12.535156 18.996094 12.539062 C 18.992188 12.539062 18.996094 12.535156 18.996094 12.539062 C 18.996094 12.539062 18.992188 12.539062 18.992188 12.539062 C 18.984375 12.546875 18.972656 12.554688 18.964844 12.558594 C 18.933594 12.582031 18.902344 12.601562 18.875 12.621094 C 18.851562 12.636719 18.828125 12.652344 18.804688 12.667969 C 18.804688 12.671875 18.804688 12.671875 18.800781 12.671875 C 18.796875 12.675781 18.796875 12.683594 18.800781 12.683594 C 18.808594 12.6875 18.816406 12.6875 18.824219 12.683594 C 18.839844 12.675781 18.855469 12.664062 18.871094 12.652344 C 18.902344 12.628906 18.933594 12.609375 18.964844 12.585938 C 18.984375 12.574219 19 12.5625 19.019531 12.550781 C 19.019531 12.550781 19.019531 12.550781 19.019531 12.546875 C 19.019531 12.550781 19.019531 12.546875 19.019531 12.546875 C 19.023438 12.546875 19.019531 12.550781 19.019531 12.546875 C 19.023438 12.546875 19.019531 12.546875 19.019531 12.546875 C 19.023438 12.546875 19.023438 12.546875 19.019531 12.546875 C 19.023438 12.546875 19.023438 12.546875 19.023438 12.546875 C 19.019531 12.546875 19.023438 12.546875 19.023438 12.546875 C 19.019531 12.546875 19.023438 12.546875 19.027344 12.546875 C 19.027344 12.550781 19.03125 12.550781 19.03125 12.550781 C 19.042969 12.550781 19.050781 12.550781 19.0625 12.554688 C 19.09375 12.558594 19.128906 12.566406 19.164062 12.570312 C 19.210938 12.578125 19.253906 12.585938 19.300781 12.589844 C 19.339844 12.597656 19.382812 12.605469 19.425781 12.609375 C 19.449219 12.613281 19.476562 12.617188 19.5 12.621094 C 19.503906 12.625 19.503906 12.625 19.507812 12.625 C 19.507812 12.625 19.503906 12.621094 19.507812 12.625 C 19.503906 12.621094 19.507812 12.625 19.507812 12.625 C 19.507812 12.625 19.503906 12.621094 19.507812 12.625 C 19.507812 12.625 19.503906 12.621094 19.507812 12.625 C 19.507812 12.621094 19.507812 12.625 19.507812 12.625 C 19.507812 12.621094 19.511719 12.621094 19.507812 12.625 C 19.507812 12.625 19.507812 12.625 19.503906 12.625 C 19.503906 12.628906 19.5 12.628906 19.496094 12.632812 C 19.46875 12.652344 19.441406 12.671875 19.414062 12.691406 C 19.386719 12.707031 19.355469 12.726562 19.328125 12.746094 C 19.324219 12.75 19.320312 12.753906 19.316406 12.757812 C 19.3125 12.757812 19.3125 12.757812 19.3125 12.761719 C 19.3125 12.757812 19.3125 12.761719 19.3125 12.761719 C 19.308594 12.761719 19.3125 12.757812 19.3125 12.761719 C 19.308594 12.761719 19.3125 12.757812 19.3125 12.761719 C 19.308594 12.761719 19.308594 12.761719 19.3125 12.761719 C 19.3125 12.761719 19.308594 12.761719 19.308594 12.761719 C 19.3125 12.761719 19.308594 12.761719 19.308594 12.761719 C 19.3125 12.761719 19.308594 12.761719 19.304688 12.757812 C 19.304688 12.757812 19.300781 12.757812 19.300781 12.757812 C 19.273438 12.753906 19.25 12.75 19.226562 12.746094 C 19.183594 12.742188 19.144531 12.734375 19.101562 12.726562 C 19.058594 12.71875 19.011719 12.714844 18.964844 12.707031 C 18.929688 12.699219 18.894531 12.695312 18.859375 12.691406 C 18.851562 12.6875 18.839844 12.6875 18.832031 12.683594 C 18.828125 12.683594 18.828125 12.683594 18.824219 12.683594 C 18.824219 12.683594 18.828125 12.683594 18.824219 12.683594 C 18.828125 12.6875 18.828125 12.683594 18.824219 12.683594 C 18.824219 12.683594 18.828125 12.6875 18.824219 12.683594 C 18.824219 12.683594 18.828125 12.6875 18.824219 12.683594 C 18.824219 12.6875 18.824219 12.683594 18.824219 12.683594 C 18.828125 12.679688 18.828125 12.671875 18.820312 12.671875 C 18.8125 12.667969 18.804688 12.667969 18.800781 12.671875 Z M 18.800781 12.671875 "
            fill-opacity="1" fill-rule="nonzero" />
    </g>
    <g clip-path="url(#0a5ab6a198)">
        <path fill="#231f20"
            d="M 18.796875 12.683594 C 18.792969 12.679688 18.796875 12.683594 18.796875 12.683594 C 18.796875 12.6875 18.796875 12.679688 18.796875 12.683594 C 18.796875 12.683594 18.796875 12.6875 18.796875 12.683594 C 18.796875 12.683594 18.796875 12.683594 18.792969 12.683594 C 18.796875 12.683594 18.796875 12.683594 18.792969 12.683594 C 18.792969 12.6875 18.796875 12.683594 18.792969 12.683594 C 18.796875 12.683594 18.796875 12.683594 18.796875 12.683594 C 18.792969 12.683594 18.792969 12.683594 18.789062 12.683594 C 18.78125 12.6875 18.769531 12.6875 18.761719 12.691406 C 18.726562 12.695312 18.691406 12.699219 18.65625 12.707031 C 18.609375 12.714844 18.566406 12.71875 18.519531 12.726562 C 18.480469 12.734375 18.4375 12.742188 18.394531 12.746094 C 18.371094 12.75 18.347656 12.753906 18.320312 12.757812 C 18.320312 12.757812 18.316406 12.757812 18.316406 12.757812 C 18.3125 12.761719 18.3125 12.761719 18.3125 12.761719 C 18.316406 12.757812 18.3125 12.761719 18.3125 12.761719 C 18.308594 12.761719 18.316406 12.761719 18.3125 12.761719 C 18.308594 12.761719 18.308594 12.761719 18.3125 12.761719 C 18.308594 12.761719 18.308594 12.761719 18.308594 12.761719 C 18.3125 12.761719 18.308594 12.761719 18.308594 12.761719 C 18.3125 12.761719 18.308594 12.761719 18.308594 12.761719 C 18.308594 12.757812 18.3125 12.761719 18.308594 12.761719 C 18.308594 12.757812 18.308594 12.757812 18.304688 12.757812 C 18.300781 12.753906 18.296875 12.75 18.292969 12.746094 C 18.265625 12.726562 18.234375 12.710938 18.207031 12.691406 C 18.179688 12.671875 18.152344 12.652344 18.125 12.632812 C 18.121094 12.628906 18.117188 12.625 18.113281 12.621094 C 18.117188 12.625 18.113281 12.628906 18.113281 12.625 C 18.113281 12.621094 18.113281 12.628906 18.113281 12.625 C 18.113281 12.625 18.113281 12.621094 18.113281 12.625 C 18.117188 12.621094 18.113281 12.625 18.113281 12.625 C 18.113281 12.625 18.109375 12.625 18.113281 12.625 C 18.117188 12.625 18.117188 12.625 18.121094 12.621094 C 18.144531 12.617188 18.171875 12.613281 18.195312 12.609375 C 18.238281 12.605469 18.28125 12.597656 18.320312 12.589844 C 18.367188 12.585938 18.410156 12.578125 18.457031 12.570312 C 18.492188 12.566406 18.523438 12.558594 18.558594 12.554688 C 18.570312 12.550781 18.578125 12.550781 18.589844 12.550781 C 18.589844 12.550781 18.59375 12.550781 18.59375 12.546875 C 18.597656 12.546875 18.597656 12.546875 18.597656 12.546875 C 18.59375 12.546875 18.597656 12.546875 18.597656 12.546875 C 18.601562 12.546875 18.59375 12.546875 18.597656 12.546875 C 18.597656 12.546875 18.601562 12.546875 18.597656 12.546875 C 18.597656 12.546875 18.601562 12.546875 18.601562 12.546875 C 18.597656 12.546875 18.601562 12.546875 18.601562 12.546875 C 18.597656 12.546875 18.601562 12.546875 18.601562 12.546875 C 18.601562 12.550781 18.597656 12.546875 18.601562 12.546875 C 18.601562 12.550781 18.601562 12.546875 18.601562 12.550781 C 18.621094 12.5625 18.636719 12.574219 18.652344 12.585938 C 18.683594 12.609375 18.714844 12.628906 18.746094 12.652344 C 18.765625 12.664062 18.78125 12.675781 18.796875 12.683594 C 18.804688 12.6875 18.8125 12.6875 18.820312 12.683594 C 18.824219 12.683594 18.824219 12.675781 18.820312 12.671875 C 18.800781 12.660156 18.785156 12.648438 18.769531 12.636719 C 18.738281 12.617188 18.707031 12.59375 18.675781 12.574219 C 18.660156 12.5625 18.640625 12.550781 18.625 12.539062 C 18.628906 12.539062 18.621094 12.535156 18.621094 12.535156 C 18.621094 12.535156 18.617188 12.53125 18.617188 12.53125 C 18.613281 12.53125 18.605469 12.527344 18.597656 12.527344 C 18.597656 12.527344 18.59375 12.527344 18.589844 12.527344 C 18.589844 12.527344 18.589844 12.53125 18.589844 12.53125 C 18.585938 12.53125 18.585938 12.53125 18.585938 12.53125 C 18.585938 12.53125 18.589844 12.53125 18.585938 12.53125 C 18.585938 12.53125 18.582031 12.53125 18.582031 12.53125 C 18.574219 12.53125 18.5625 12.535156 18.554688 12.535156 C 18.519531 12.539062 18.488281 12.546875 18.453125 12.550781 C 18.410156 12.558594 18.363281 12.566406 18.320312 12.570312 C 18.277344 12.578125 18.234375 12.585938 18.191406 12.589844 C 18.167969 12.597656 18.140625 12.601562 18.113281 12.605469 C 18.109375 12.605469 18.109375 12.605469 18.105469 12.605469 C 18.097656 12.605469 18.09375 12.609375 18.089844 12.613281 C 18.082031 12.621094 18.082031 12.632812 18.089844 12.636719 C 18.09375 12.640625 18.097656 12.640625 18.097656 12.640625 C 18.125 12.660156 18.148438 12.675781 18.175781 12.695312 C 18.203125 12.714844 18.234375 12.734375 18.261719 12.753906 C 18.269531 12.761719 18.277344 12.765625 18.285156 12.769531 C 18.285156 12.769531 18.28125 12.769531 18.285156 12.769531 C 18.285156 12.769531 18.285156 12.773438 18.289062 12.773438 C 18.289062 12.773438 18.292969 12.777344 18.292969 12.777344 C 18.300781 12.777344 18.304688 12.78125 18.3125 12.78125 C 18.3125 12.78125 18.316406 12.78125 18.320312 12.777344 C 18.320312 12.777344 18.324219 12.777344 18.324219 12.777344 C 18.324219 12.777344 18.320312 12.777344 18.324219 12.777344 C 18.34375 12.773438 18.367188 12.773438 18.386719 12.769531 C 18.425781 12.761719 18.464844 12.757812 18.503906 12.75 C 18.550781 12.742188 18.597656 12.734375 18.640625 12.726562 C 18.679688 12.722656 18.71875 12.714844 18.753906 12.710938 C 18.769531 12.707031 18.789062 12.707031 18.804688 12.703125 C 18.8125 12.703125 18.816406 12.699219 18.820312 12.695312 C 18.828125 12.6875 18.828125 12.679688 18.820312 12.671875 C 18.816406 12.667969 18.808594 12.667969 18.800781 12.671875 C 18.792969 12.671875 18.792969 12.679688 18.796875 12.683594 Z M 18.796875 12.683594 "
            fill-opacity="1" fill-rule="nonzero" />
    </g>
    <g clip-path="url(#fe9b8c60d4)">
        <path fill="#231f20"
            d="M 18.796875 12.847656 C 18.796875 12.855469 18.796875 12.859375 18.796875 12.867188 C 18.796875 12.886719 18.796875 12.902344 18.796875 12.917969 C 18.796875 12.941406 18.796875 12.96875 18.796875 12.992188 C 18.796875 13.015625 18.796875 13.042969 18.796875 13.070312 C 18.796875 13.097656 18.796875 13.121094 18.796875 13.148438 C 18.796875 13.167969 18.796875 13.191406 18.796875 13.210938 C 18.796875 13.222656 18.796875 13.234375 18.796875 13.25 C 18.796875 13.25 18.796875 13.25 18.796875 13.253906 C 18.796875 13.257812 18.800781 13.261719 18.808594 13.261719 C 18.820312 13.261719 18.824219 13.257812 18.824219 13.253906 C 18.824219 13.246094 18.824219 13.242188 18.824219 13.234375 C 18.824219 13.21875 18.824219 13.199219 18.824219 13.183594 C 18.824219 13.160156 18.824219 13.136719 18.824219 13.109375 C 18.824219 13.085938 18.824219 13.058594 18.824219 13.03125 C 18.824219 13.003906 18.824219 12.980469 18.824219 12.953125 C 18.824219 12.933594 18.824219 12.910156 18.824219 12.890625 C 18.824219 12.878906 18.824219 12.867188 18.824219 12.851562 C 18.824219 12.851562 18.824219 12.851562 18.824219 12.847656 C 18.824219 12.84375 18.820312 12.839844 18.808594 12.839844 C 18.800781 12.839844 18.796875 12.84375 18.796875 12.847656 Z M 18.796875 12.847656 "
            fill-opacity="1" fill-rule="nonzero" />
    </g>
</svg>